<svg width="2051" height="327" viewBox="0 0 2051 327" fill="none" xmlns="http://www.w3.org/2000/svg">
<rect x="272" width="1680" height="327" rx="80" fill="#009C49"/>
<path d="M1495 0H1971C2015.18 0 2051 35.8172 2051 80V247C2051 291.183 2015.18 327 1971 327H1495V0Z" fill="#9CBC66"/>
<path d="M366.368 188.21V179.71H404.108C404.278 192.8 409.548 193.82 420.428 193.82H466.668C474.658 193.82 482.818 192.97 482.818 183.45C482.818 172.74 478.398 172.06 429.778 172.06C372.998 172.06 366.538 165.26 366.538 135C366.538 112.73 368.578 95.56 416.178 95.56H468.878C512.398 95.56 516.478 110.35 516.478 131.94V135.85H478.738C478.738 126.84 477.718 123.1 460.378 123.1H418.558C410.058 123.1 404.278 125.99 404.278 132.62C404.278 143.33 408.868 143.67 449.328 143.5C507.978 143.33 521.578 146.9 521.578 182.77C521.578 215.92 510.358 221.36 460.208 221.36H414.478C380.138 221.36 366.368 214.9 366.368 188.21ZM536.387 176.14V96.92H574.127V167.98C574.127 183.62 579.737 189.74 595.207 189.74H632.607C648.077 189.74 653.687 183.62 653.687 167.98V96.92H691.427V176.14C691.427 206.74 675.617 221.36 640.937 221.36H586.877C552.197 221.36 536.387 206.74 536.387 176.14ZM746.086 127.52V157.44H808.476C818.676 157.44 822.416 153.36 822.416 144.52V140.44C822.416 129.56 816.976 127.52 805.076 127.52H746.086ZM708.346 220V96.92H822.246C851.316 96.92 859.136 111.37 859.136 133.47V141.29C859.136 157.78 855.396 167.47 838.056 171.55V171.89C849.276 173.93 858.626 178.86 858.626 199.09V220H820.886V205.21C820.886 192.29 817.146 188.04 805.416 188.04H746.086V220H708.346ZM864.084 220L930.724 96.92H979.854L1047.51 220H1005.52L993.794 198.24H917.294L906.244 220H864.084ZM955.204 125.48L931.404 171.72H979.684L955.204 125.48ZM1052.43 220V96.92H1161.06C1191.15 96.92 1205.77 105.08 1205.77 129.22C1205.77 150.3 1198.12 154.38 1187.58 157.44V157.95C1204.07 159.99 1210.19 168.83 1210.19 187.36C1210.19 214.39 1194.21 220 1172.62 220H1052.43ZM1090.17 171.21V190.42H1157.83C1165.99 190.42 1171.43 188.55 1171.43 181.41C1171.43 173.08 1165.99 171.21 1157.83 171.21H1090.17ZM1090.17 126.5V145.71H1156.98C1163.95 145.71 1168.03 143.16 1168.03 136.19C1168.03 129.05 1163.95 126.5 1156.98 126.5H1090.17ZM1224.39 220V96.92H1262.13V140.78H1341.69V96.92H1379.43V220H1341.69V173.42H1262.13V220H1224.39ZM1398.39 220V96.92H1436.13V220H1398.39Z" fill="white"/>
<path d="M1313.7 296V234.696H1342.31C1344.98 234.696 1347.3 234.892 1349.27 235.282C1351.25 235.673 1352.96 236.511 1354.39 237.797C1356.4 239.604 1357.73 241.858 1358.4 244.56C1359.06 247.245 1359.4 250.321 1359.4 253.788C1359.4 256.799 1359.13 259.477 1358.59 261.82C1358.07 264.148 1357.01 266.076 1355.39 267.606C1354.27 268.746 1353.04 269.617 1351.71 270.219C1350.37 270.805 1348.99 271.212 1347.56 271.439C1346.13 271.651 1344.21 271.781 1341.82 271.83C1339.44 271.879 1338.24 271.903 1338.21 271.903H1320.51V296H1313.7ZM1320.51 266.093H1336.79C1340.94 266.093 1344.05 265.857 1346.12 265.385C1348.18 264.913 1349.73 263.798 1350.76 262.04C1351.78 260.266 1352.29 257.483 1352.29 253.69C1352.29 250.484 1352.07 247.986 1351.61 246.195C1351.17 244.389 1350.22 243.038 1348.75 242.143C1347.29 241.247 1345.08 240.8 1342.11 240.8H1320.51V266.093ZM1368.85 234.696V296H1362.35V234.696H1368.85ZM1407.71 253.104V296H1401.81V290.312C1400.02 292.851 1398.02 294.519 1395.82 295.316C1393.63 296.098 1390.69 296.488 1387.01 296.488C1381.93 296.488 1378.19 295.284 1375.78 292.875C1373.39 290.466 1372.19 286.674 1372.19 281.498V253.104H1378.81V281.498C1378.81 284.086 1379.08 286.072 1379.61 287.455C1380.15 288.822 1381.09 289.791 1382.42 290.36C1383.77 290.914 1385.77 291.19 1388.4 291.19C1391.8 291.19 1394.41 290.792 1396.21 289.994C1398.04 289.18 1399.31 287.862 1400.02 286.039C1400.74 284.216 1401.1 281.636 1401.1 278.3V253.104H1407.71ZM1446.58 264.188H1440.18C1440.18 261.438 1439.31 259.623 1437.57 258.744C1435.83 257.849 1433.43 257.401 1430.37 257.401H1427.17C1424.14 257.401 1421.85 257.849 1420.29 258.744C1418.74 259.623 1417.97 261.373 1417.97 263.993C1417.97 265.767 1418.14 267.118 1418.48 268.046C1418.82 268.957 1419.44 269.633 1420.34 270.072C1421.23 270.495 1422.58 270.772 1424.39 270.902C1427.32 270.967 1430.2 271.033 1433.03 271.098C1435.86 271.163 1438.35 271.505 1440.5 272.123C1442.65 272.742 1444.4 273.93 1445.75 275.688C1447.1 277.445 1447.78 279.984 1447.78 283.305C1447.78 287.243 1447.05 290.165 1445.6 292.069C1444.17 293.957 1442.2 295.17 1439.7 295.707C1437.21 296.228 1433.87 296.488 1429.69 296.488C1425.88 296.488 1422.7 296.26 1420.14 295.805C1417.6 295.349 1415.47 294.275 1413.74 292.582C1412.04 290.873 1411.18 288.277 1411.18 284.794C1411.18 283.671 1411.21 282.873 1411.28 282.401H1417.67C1417.67 284.957 1417.99 286.885 1418.63 288.188C1419.28 289.473 1420.31 290.352 1421.73 290.824C1423.14 291.28 1425.19 291.508 1427.88 291.508H1429.37C1434.45 291.508 1437.78 290.938 1439.38 289.799C1440.65 288.904 1441.28 286.837 1441.28 283.598C1441.28 280.782 1440.62 279 1439.31 278.251C1437.99 277.486 1435.94 277.104 1433.18 277.104H1430.57C1430.47 277.104 1430.27 277.071 1429.98 277.006C1429.69 276.941 1429.48 276.908 1429.37 276.908C1425.15 276.648 1422.37 276.452 1421.02 276.322C1419.67 276.176 1418.2 275.753 1416.6 275.053C1415.01 274.337 1413.75 273.197 1412.84 271.635C1411.93 270.056 1411.47 267.908 1411.47 265.189C1411.47 260.095 1412.51 256.832 1414.57 255.399C1417.46 253.332 1422.09 252.299 1428.47 252.299C1432 252.299 1435.05 252.576 1437.62 253.129C1440.19 253.666 1442.32 254.813 1444.02 256.571C1445.73 258.313 1446.58 260.852 1446.58 264.188Z" fill="white"/>
<path d="M1512.74 127.52V96.92H1656.56V127.52H1603.52V220H1565.78V127.52H1512.74ZM1664.49 220V96.92H1722.46L1765.13 176.14L1807.8 96.92H1865.77V220H1829.05V131.6H1828.71L1779.24 220H1751.02L1701.55 131.6H1701.21V220H1664.49ZM1873.76 127.52V96.92H2017.58V127.52H1964.54V220H1926.8V127.52H1873.76Z" fill="black"/>
<path d="M1605.99 234.696V240.8H1571.4V259.208C1572.99 257.043 1575.1 255.668 1577.72 255.082C1580.34 254.496 1583.56 254.203 1587.39 254.203C1592.48 254.203 1596.56 254.765 1599.62 255.888C1602.68 256.994 1604.94 258.948 1606.41 261.747C1607.87 264.53 1608.61 268.477 1608.61 273.588C1608.61 278.536 1608.33 282.45 1607.78 285.331C1607.22 288.212 1606.18 290.491 1604.65 292.167C1603.12 293.827 1600.92 294.999 1598.03 295.683C1595.17 296.366 1591.29 296.708 1586.39 296.708C1582.16 296.708 1578.74 296.529 1576.13 296.171C1573.53 295.829 1571.29 295.064 1569.42 293.876C1567.57 292.688 1566.15 290.849 1565.17 288.358C1564.2 285.852 1563.71 282.532 1563.71 278.397H1570.4C1570.4 281.832 1570.75 284.42 1571.45 286.161C1572.15 287.886 1573.36 289.075 1575.08 289.726C1576.81 290.377 1579.38 290.702 1582.8 290.702H1585.51C1589.86 290.702 1593.1 290.442 1595.25 289.921C1597.4 289.384 1598.99 288.179 1600.04 286.308C1601.08 284.42 1601.6 281.449 1601.6 277.396C1601.6 272.595 1601.37 269.104 1600.92 266.923C1600.48 264.742 1599.25 263.082 1597.25 261.942C1595.27 260.787 1591.98 260.209 1587.39 260.209H1583.09C1580 260.209 1577.4 260.543 1575.28 261.21C1573.18 261.861 1571.89 263.358 1571.4 265.702H1564.9V234.696H1605.99ZM1654.24 234.696V240.8H1619.64V259.208C1621.24 257.043 1623.34 255.668 1625.96 255.082C1628.58 254.496 1631.81 254.203 1635.63 254.203C1640.73 254.203 1644.8 254.765 1647.86 255.888C1650.92 256.994 1653.19 258.948 1654.65 261.747C1656.12 264.53 1656.85 268.477 1656.85 273.588C1656.85 278.536 1656.57 282.45 1656.02 285.331C1655.46 288.212 1654.42 290.491 1652.89 292.167C1651.36 293.827 1649.16 294.999 1646.28 295.683C1643.41 296.366 1639.53 296.708 1634.63 296.708C1630.4 296.708 1626.98 296.529 1624.38 296.171C1621.77 295.829 1619.53 295.064 1617.66 293.876C1615.81 292.688 1614.39 290.849 1613.42 288.358C1612.44 285.852 1611.95 282.532 1611.95 278.397H1618.64C1618.64 281.832 1618.99 284.42 1619.69 286.161C1620.39 287.886 1621.6 289.075 1623.33 289.726C1625.05 290.377 1627.62 290.702 1631.04 290.702H1633.75C1638.1 290.702 1641.34 290.442 1643.49 289.921C1645.64 289.384 1647.24 288.179 1648.28 286.308C1649.32 284.42 1649.84 281.449 1649.84 277.396C1649.84 272.595 1649.61 269.104 1649.16 266.923C1648.72 264.742 1647.5 263.082 1645.5 261.942C1643.51 260.787 1640.22 260.209 1635.63 260.209H1631.33C1628.24 260.209 1625.64 260.543 1623.52 261.21C1621.42 261.861 1620.13 263.358 1619.64 265.702H1613.15V234.696H1654.24ZM1659.68 264.506C1659.68 263.952 1659.65 263.057 1659.58 261.82C1659.52 260.583 1659.48 259.639 1659.48 258.988C1659.48 255.456 1659.71 252.234 1660.17 249.32C1660.64 246.407 1661.63 243.754 1663.15 241.361C1664.66 238.952 1666.84 237.13 1669.69 235.893C1672.29 234.9 1676.19 234.403 1681.38 234.403H1685.68C1690.89 234.403 1694.98 234.615 1697.96 235.038C1700.94 235.445 1703.42 236.348 1705.41 237.748C1707.39 239.132 1708.89 241.288 1709.9 244.218C1710.92 247.147 1711.52 251.143 1711.68 256.205V277.592C1711.55 281.482 1710.86 284.761 1709.61 287.431C1708.35 290.1 1706.45 292.175 1703.89 293.656C1701.35 295.137 1698.15 295.984 1694.27 296.195C1692.68 296.26 1690.32 296.293 1687.19 296.293H1682.19C1678.9 296.293 1676.02 296.081 1673.55 295.658C1671.07 295.219 1668.87 294.429 1666.93 293.29C1665.01 292.151 1663.45 290.523 1662.24 288.407C1661.04 286.275 1660.28 283.541 1659.97 280.204C1659.78 277.795 1659.68 274.06 1659.68 268.998V264.506ZM1666.69 264.994V276.591C1666.8 280.644 1667.58 283.85 1669.03 286.21C1670.48 288.554 1673.1 289.815 1676.89 289.994C1678.39 290.027 1680.52 290.124 1683.29 290.287C1686.06 290.434 1688.32 290.507 1690.08 290.507C1693.62 290.507 1696.43 290.157 1698.5 289.457C1700.58 288.741 1702.14 287.317 1703.19 285.185C1704.24 283.036 1704.77 279.879 1704.77 275.712V255.009C1704.77 250.842 1704.32 247.717 1703.43 245.634C1702.53 243.534 1700.99 242.102 1698.79 241.337C1696.61 240.572 1693.37 240.189 1689.07 240.189H1682.38C1678.82 240.189 1676 240.417 1673.94 240.873C1671.89 241.312 1670.22 242.411 1668.93 244.169C1667.66 245.927 1666.98 248.637 1666.88 252.299C1666.75 255.033 1666.69 259.265 1666.69 264.994ZM1748.42 240.897V261.601H1779.63V267.411H1748.42V289.994H1781.02V296H1741.71V234.696H1781.02V240.897H1748.42ZM1840.2 288.407L1837.51 293.192L1832.8 289.994C1830.6 292.729 1827.88 294.462 1824.65 295.194C1821.41 295.927 1817.3 296.293 1812.32 296.293C1807.29 296.293 1803.3 296.146 1800.35 295.854C1797.41 295.544 1794.77 294.779 1792.44 293.559C1790.13 292.338 1788.31 290.368 1786.97 287.65C1785.64 284.932 1784.85 281.181 1784.61 276.396C1784.54 273.873 1784.51 269.975 1784.51 264.701C1784.51 257.963 1784.78 252.779 1785.31 249.149C1785.85 245.504 1786.97 242.598 1788.68 240.434C1790.39 238.253 1793.01 236.706 1796.54 235.795C1800.09 234.867 1805.02 234.403 1811.32 234.403H1812.9C1818.76 234.403 1823.23 234.9 1826.31 235.893C1829.94 237.162 1832.51 239.604 1834.02 243.217C1835.55 246.814 1836.32 250.875 1836.32 255.399V265.189L1836.41 273.808C1836.41 278.674 1835.97 282.401 1835.09 284.989L1840.2 288.407ZM1811.32 269.291L1829.02 281.01C1829.41 276.599 1829.6 271.96 1829.6 267.094C1829.6 263.301 1829.47 258.069 1829.21 251.396C1828.84 248.124 1828.08 245.699 1826.94 244.12C1825.82 242.525 1824.39 241.508 1822.64 241.068C1820.92 240.629 1818.57 240.409 1815.61 240.409H1808.7C1805.12 240.409 1802.36 240.531 1800.4 240.775C1798.45 241.003 1796.78 241.589 1795.4 242.533C1794.01 243.461 1792.98 244.958 1792.3 247.025C1791.63 249.092 1791.3 251.949 1791.3 255.595V264.799L1791.52 274.491C1791.52 278.3 1791.82 281.278 1792.44 283.427C1793.06 285.575 1794.05 287.154 1795.42 288.163C1796.79 289.172 1798.55 289.815 1800.7 290.092C1802.86 290.368 1805.93 290.507 1809.9 290.507C1810.49 290.507 1811.42 290.539 1812.71 290.604C1813.99 290.67 1814.96 290.702 1815.61 290.702C1821.26 290.702 1825.09 289.302 1827.11 286.503L1808.21 274.101L1811.32 269.291ZM1844.08 296V234.696H1872.99C1879.41 234.696 1884.02 236.047 1886.8 238.749C1889.59 241.435 1890.98 246.016 1890.98 252.494C1890.98 255.912 1890.8 258.581 1890.44 260.502C1890.08 262.406 1889.14 264.083 1887.61 265.531C1886.1 266.98 1883.69 268.005 1880.38 268.607C1886.91 269.063 1890.17 272.961 1890.17 280.302V296H1883.07V281.889C1883.07 277.95 1882.17 275.183 1880.36 273.588C1878.55 271.993 1875.62 271.195 1871.57 271.195H1850.77V296H1844.08ZM1850.77 265.507H1870.67C1873.89 265.507 1876.44 265.206 1878.31 264.604C1880.18 264.001 1881.55 262.878 1882.43 261.234C1883.33 259.574 1883.78 257.23 1883.78 254.203C1883.78 250.753 1883.56 248.124 1883.12 246.317C1882.68 244.511 1881.69 243.144 1880.16 242.216C1878.63 241.272 1876.24 240.8 1872.99 240.8H1850.77V265.507Z" fill="black"/>
<rect y="79.1777" width="79.1768" height="213.777" transform="rotate(-90 0 79.1777)" fill="#009C49"/>
<rect width="79.1768" height="213.777" fill="#009C49"/>
<rect x="213.777" y="247.822" width="79.1768" height="213.777" transform="rotate(90 213.777 247.822)" fill="#9CBC66"/>
<rect x="213.777" y="327" width="79.1768" height="213.777" transform="rotate(-180 213.777 327)" fill="#9CBC66"/>
</svg>
