<svg width="1779" height="327" viewBox="0 0 1779 327" fill="none" xmlns="http://www.w3.org/2000/svg">
<rect width="1680" height="327" fill="#009C49"/>
<rect x="1223" width="556" height="327" fill="#9CBC66"/>
<path d="M94.3681 188.21V179.71H132.108C132.278 192.8 137.548 193.82 148.428 193.82H194.668C202.658 193.82 210.818 192.97 210.818 183.45C210.818 172.74 206.398 172.06 157.778 172.06C100.998 172.06 94.5381 165.26 94.5381 135C94.5381 112.73 96.5781 95.56 144.178 95.56H196.878C240.398 95.56 244.478 110.35 244.478 131.94V135.85H206.738C206.738 126.84 205.718 123.1 188.378 123.1H146.558C138.058 123.1 132.278 125.99 132.278 132.62C132.278 143.33 136.868 143.67 177.328 143.5C235.978 143.33 249.578 146.9 249.578 182.77C249.578 215.92 238.358 221.36 188.208 221.36H142.478C108.138 221.36 94.3681 214.9 94.3681 188.21ZM264.387 176.14V96.92H302.127V167.98C302.127 183.62 307.737 189.74 323.207 189.74H360.607C376.077 189.74 381.687 183.62 381.687 167.98V96.92H419.427V176.14C419.427 206.74 403.617 221.36 368.937 221.36H314.877C280.197 221.36 264.387 206.74 264.387 176.14ZM474.086 127.52V157.44H536.476C546.676 157.44 550.416 153.36 550.416 144.52V140.44C550.416 129.56 544.976 127.52 533.076 127.52H474.086ZM436.346 220V96.92H550.246C579.316 96.92 587.136 111.37 587.136 133.47V141.29C587.136 157.78 583.396 167.47 566.056 171.55V171.89C577.276 173.93 586.626 178.86 586.626 199.09V220H548.886V205.21C548.886 192.29 545.146 188.04 533.416 188.04H474.086V220H436.346ZM592.084 220L658.724 96.92H707.854L775.514 220H733.524L721.794 198.24H645.294L634.244 220H592.084ZM683.204 125.48L659.404 171.72H707.684L683.204 125.48ZM780.43 220V96.92H889.06C919.15 96.92 933.77 105.08 933.77 129.22C933.77 150.3 926.12 154.38 915.58 157.44V157.95C932.07 159.99 938.19 168.83 938.19 187.36C938.19 214.39 922.21 220 900.62 220H780.43ZM818.17 171.21V190.42H885.83C893.99 190.42 899.43 188.55 899.43 181.41C899.43 173.08 893.99 171.21 885.83 171.21H818.17ZM818.17 126.5V145.71H884.98C891.95 145.71 896.03 143.16 896.03 136.19C896.03 129.05 891.95 126.5 884.98 126.5H818.17ZM952.389 220V96.92H990.129V140.78H1069.69V96.92H1107.43V220H1069.69V173.42H990.129V220H952.389ZM1126.39 220V96.92H1164.13V220H1126.39Z" fill="white"/>
<path d="M1041.7 296V234.696H1070.31C1072.98 234.696 1075.3 234.892 1077.27 235.282C1079.25 235.673 1080.96 236.511 1082.39 237.797C1084.4 239.604 1085.73 241.858 1086.4 244.56C1087.06 247.245 1087.4 250.321 1087.4 253.788C1087.4 256.799 1087.13 259.477 1086.59 261.82C1086.07 264.148 1085.01 266.076 1083.39 267.606C1082.27 268.746 1081.04 269.617 1079.71 270.219C1078.37 270.805 1076.99 271.212 1075.56 271.439C1074.13 271.651 1072.21 271.781 1069.82 271.83C1067.44 271.879 1066.24 271.903 1066.21 271.903H1048.51V296H1041.7ZM1048.51 266.093H1064.79C1068.94 266.093 1072.05 265.857 1074.12 265.385C1076.18 264.913 1077.73 263.798 1078.76 262.04C1079.78 260.266 1080.29 257.483 1080.29 253.69C1080.29 250.484 1080.07 247.986 1079.61 246.195C1079.17 244.389 1078.22 243.038 1076.75 242.143C1075.29 241.247 1073.08 240.8 1070.11 240.8H1048.51V266.093ZM1096.85 234.696V296H1090.35V234.696H1096.85ZM1135.71 253.104V296H1129.81V290.312C1128.02 292.851 1126.02 294.519 1123.82 295.316C1121.63 296.098 1118.69 296.488 1115.01 296.488C1109.93 296.488 1106.19 295.284 1103.78 292.875C1101.39 290.466 1100.19 286.674 1100.19 281.498V253.104H1106.81V281.498C1106.81 284.086 1107.08 286.072 1107.61 287.455C1108.15 288.822 1109.09 289.791 1110.42 290.36C1111.77 290.914 1113.77 291.19 1116.4 291.19C1119.8 291.19 1122.41 290.792 1124.21 289.994C1126.04 289.18 1127.31 287.862 1128.02 286.039C1128.74 284.216 1129.1 281.636 1129.1 278.3V253.104H1135.71ZM1174.58 264.188H1168.18C1168.18 261.438 1167.31 259.623 1165.57 258.744C1163.83 257.849 1161.43 257.401 1158.37 257.401H1155.17C1152.14 257.401 1149.85 257.849 1148.29 258.744C1146.74 259.623 1145.97 261.373 1145.97 263.993C1145.97 265.767 1146.14 267.118 1146.48 268.046C1146.82 268.957 1147.44 269.633 1148.34 270.072C1149.23 270.495 1150.58 270.772 1152.39 270.902C1155.32 270.967 1158.2 271.033 1161.03 271.098C1163.86 271.163 1166.35 271.505 1168.5 272.123C1170.65 272.742 1172.4 273.93 1173.75 275.688C1175.1 277.445 1175.78 279.984 1175.78 283.305C1175.78 287.243 1175.05 290.165 1173.6 292.069C1172.17 293.957 1170.2 295.17 1167.7 295.707C1165.21 296.228 1161.87 296.488 1157.69 296.488C1153.88 296.488 1150.7 296.26 1148.14 295.805C1145.6 295.349 1143.47 294.275 1141.74 292.582C1140.04 290.873 1139.18 288.277 1139.18 284.794C1139.18 283.671 1139.21 282.873 1139.28 282.401H1145.67C1145.67 284.957 1145.99 286.885 1146.63 288.188C1147.28 289.473 1148.31 290.352 1149.73 290.824C1151.14 291.28 1153.19 291.508 1155.88 291.508H1157.37C1162.45 291.508 1165.78 290.938 1167.38 289.799C1168.65 288.904 1169.28 286.837 1169.28 283.598C1169.28 280.782 1168.62 279 1167.31 278.251C1165.99 277.486 1163.94 277.104 1161.18 277.104H1158.57C1158.47 277.104 1158.27 277.071 1157.98 277.006C1157.69 276.941 1157.48 276.908 1157.37 276.908C1153.15 276.648 1150.37 276.452 1149.02 276.322C1147.67 276.176 1146.2 275.753 1144.6 275.053C1143.01 274.337 1141.75 273.197 1140.84 271.635C1139.93 270.056 1139.47 267.908 1139.47 265.189C1139.47 260.095 1140.51 256.832 1142.57 255.399C1145.46 253.332 1150.09 252.299 1156.47 252.299C1160 252.299 1163.05 252.576 1165.62 253.129C1168.19 253.666 1170.32 254.813 1172.02 256.571C1173.73 258.313 1174.58 260.852 1174.58 264.188Z" fill="white"/>
<path d="M1240.74 127.52V96.92H1384.56V127.52H1331.52V220H1293.78V127.52H1240.74ZM1392.49 220V96.92H1450.46L1493.13 176.14L1535.8 96.92H1593.77V220H1557.05V131.6H1556.71L1507.24 220H1479.02L1429.55 131.6H1429.21V220H1392.49ZM1601.76 127.52V96.92H1745.58V127.52H1692.54V220H1654.8V127.52H1601.76Z" fill="black"/>
<path d="M1333.99 234.696V240.8H1299.4V259.208C1300.99 257.043 1303.1 255.668 1305.72 255.082C1308.34 254.496 1311.56 254.203 1315.39 254.203C1320.48 254.203 1324.56 254.765 1327.62 255.888C1330.68 256.994 1332.94 258.948 1334.41 261.747C1335.87 264.53 1336.61 268.477 1336.61 273.588C1336.61 278.536 1336.33 282.45 1335.78 285.331C1335.22 288.212 1334.18 290.491 1332.65 292.167C1331.12 293.827 1328.92 294.999 1326.03 295.683C1323.17 296.366 1319.29 296.708 1314.39 296.708C1310.16 296.708 1306.74 296.529 1304.13 296.171C1301.53 295.829 1299.29 295.064 1297.42 293.876C1295.57 292.688 1294.15 290.849 1293.17 288.358C1292.2 285.852 1291.71 282.532 1291.71 278.397H1298.4C1298.4 281.832 1298.75 284.42 1299.45 286.161C1300.15 287.886 1301.36 289.075 1303.08 289.726C1304.81 290.377 1307.38 290.702 1310.8 290.702H1313.51C1317.86 290.702 1321.1 290.442 1323.25 289.921C1325.4 289.384 1326.99 288.179 1328.04 286.308C1329.08 284.42 1329.6 281.449 1329.6 277.396C1329.6 272.595 1329.37 269.104 1328.92 266.923C1328.48 264.742 1327.25 263.082 1325.25 261.942C1323.27 260.787 1319.98 260.209 1315.39 260.209H1311.09C1308 260.209 1305.4 260.543 1303.28 261.21C1301.18 261.861 1299.89 263.358 1299.4 265.702H1292.9V234.696H1333.99ZM1382.24 234.696V240.8H1347.64V259.208C1349.24 257.043 1351.34 255.668 1353.96 255.082C1356.58 254.496 1359.81 254.203 1363.63 254.203C1368.73 254.203 1372.8 254.765 1375.86 255.888C1378.92 256.994 1381.19 258.948 1382.65 261.747C1384.12 264.53 1384.85 268.477 1384.85 273.588C1384.85 278.536 1384.57 282.45 1384.02 285.331C1383.46 288.212 1382.42 290.491 1380.89 292.167C1379.36 293.827 1377.16 294.999 1374.28 295.683C1371.41 296.366 1367.53 296.708 1362.63 296.708C1358.4 296.708 1354.98 296.529 1352.38 296.171C1349.77 295.829 1347.53 295.064 1345.66 293.876C1343.81 292.688 1342.39 290.849 1341.42 288.358C1340.44 285.852 1339.95 282.532 1339.95 278.397H1346.64C1346.64 281.832 1346.99 284.42 1347.69 286.161C1348.39 287.886 1349.6 289.075 1351.33 289.726C1353.05 290.377 1355.62 290.702 1359.04 290.702H1361.75C1366.1 290.702 1369.34 290.442 1371.49 289.921C1373.64 289.384 1375.24 288.179 1376.28 286.308C1377.32 284.42 1377.84 281.449 1377.84 277.396C1377.84 272.595 1377.61 269.104 1377.16 266.923C1376.72 264.742 1375.5 263.082 1373.5 261.942C1371.51 260.787 1368.22 260.209 1363.63 260.209H1359.33C1356.24 260.209 1353.64 260.543 1351.52 261.21C1349.42 261.861 1348.13 263.358 1347.64 265.702H1341.15V234.696H1382.24ZM1387.68 264.506C1387.68 263.952 1387.65 263.057 1387.58 261.82C1387.52 260.583 1387.48 259.639 1387.48 258.988C1387.48 255.456 1387.71 252.234 1388.17 249.32C1388.64 246.407 1389.63 243.754 1391.15 241.361C1392.66 238.952 1394.84 237.13 1397.69 235.893C1400.29 234.9 1404.19 234.403 1409.38 234.403H1413.68C1418.89 234.403 1422.98 234.615 1425.96 235.038C1428.94 235.445 1431.42 236.348 1433.41 237.748C1435.39 239.132 1436.89 241.288 1437.9 244.218C1438.92 247.147 1439.52 251.143 1439.68 256.205V277.592C1439.55 281.482 1438.86 284.761 1437.61 287.431C1436.35 290.1 1434.45 292.175 1431.89 293.656C1429.35 295.137 1426.15 295.984 1422.27 296.195C1420.68 296.26 1418.32 296.293 1415.19 296.293H1410.19C1406.9 296.293 1404.02 296.081 1401.55 295.658C1399.07 295.219 1396.87 294.429 1394.93 293.29C1393.01 292.151 1391.45 290.523 1390.24 288.407C1389.04 286.275 1388.28 283.541 1387.97 280.204C1387.78 277.795 1387.68 274.06 1387.68 268.998V264.506ZM1394.69 264.994V276.591C1394.8 280.644 1395.58 283.85 1397.03 286.21C1398.48 288.554 1401.1 289.815 1404.89 289.994C1406.39 290.027 1408.52 290.124 1411.29 290.287C1414.06 290.434 1416.32 290.507 1418.08 290.507C1421.62 290.507 1424.43 290.157 1426.5 289.457C1428.58 288.741 1430.14 287.317 1431.19 285.185C1432.24 283.036 1432.77 279.879 1432.77 275.712V255.009C1432.77 250.842 1432.32 247.717 1431.43 245.634C1430.53 243.534 1428.99 242.102 1426.79 241.337C1424.61 240.572 1421.37 240.189 1417.07 240.189H1410.38C1406.82 240.189 1404 240.417 1401.94 240.873C1399.89 241.312 1398.22 242.411 1396.93 244.169C1395.66 245.927 1394.98 248.637 1394.88 252.299C1394.75 255.033 1394.69 259.265 1394.69 264.994ZM1476.42 240.897V261.601H1507.63V267.411H1476.42V289.994H1509.02V296H1469.71V234.696H1509.02V240.897H1476.42ZM1568.2 288.407L1565.51 293.192L1560.8 289.994C1558.6 292.729 1555.88 294.462 1552.65 295.194C1549.41 295.927 1545.3 296.293 1540.32 296.293C1535.29 296.293 1531.3 296.146 1528.35 295.854C1525.41 295.544 1522.77 294.779 1520.44 293.559C1518.13 292.338 1516.31 290.368 1514.97 287.65C1513.64 284.932 1512.85 281.181 1512.61 276.396C1512.54 273.873 1512.51 269.975 1512.51 264.701C1512.51 257.963 1512.78 252.779 1513.31 249.149C1513.85 245.504 1514.97 242.598 1516.68 240.434C1518.39 238.253 1521.01 236.706 1524.54 235.795C1528.09 234.867 1533.02 234.403 1539.32 234.403H1540.9C1546.76 234.403 1551.23 234.9 1554.31 235.893C1557.94 237.162 1560.51 239.604 1562.02 243.217C1563.55 246.814 1564.32 250.875 1564.32 255.399V265.189L1564.41 273.808C1564.41 278.674 1563.97 282.401 1563.09 284.989L1568.2 288.407ZM1539.32 269.291L1557.02 281.01C1557.41 276.599 1557.6 271.96 1557.6 267.094C1557.6 263.301 1557.47 258.069 1557.21 251.396C1556.84 248.124 1556.08 245.699 1554.94 244.12C1553.82 242.525 1552.39 241.508 1550.64 241.068C1548.92 240.629 1546.57 240.409 1543.61 240.409H1536.7C1533.12 240.409 1530.36 240.531 1528.4 240.775C1526.45 241.003 1524.78 241.589 1523.4 242.533C1522.01 243.461 1520.98 244.958 1520.3 247.025C1519.63 249.092 1519.3 251.949 1519.3 255.595V264.799L1519.52 274.491C1519.52 278.3 1519.82 281.278 1520.44 283.427C1521.06 285.575 1522.05 287.154 1523.42 288.163C1524.79 289.172 1526.55 289.815 1528.7 290.092C1530.86 290.368 1533.93 290.507 1537.9 290.507C1538.49 290.507 1539.42 290.539 1540.71 290.604C1541.99 290.67 1542.96 290.702 1543.61 290.702C1549.26 290.702 1553.09 289.302 1555.11 286.503L1536.21 274.101L1539.32 269.291ZM1572.08 296V234.696H1600.99C1607.41 234.696 1612.02 236.047 1614.8 238.749C1617.59 241.435 1618.98 246.016 1618.98 252.494C1618.98 255.912 1618.8 258.581 1618.44 260.502C1618.08 262.406 1617.14 264.083 1615.61 265.531C1614.1 266.98 1611.69 268.005 1608.38 268.607C1614.91 269.063 1618.17 272.961 1618.17 280.302V296H1611.07V281.889C1611.07 277.95 1610.17 275.183 1608.36 273.588C1606.55 271.993 1603.62 271.195 1599.57 271.195H1578.77V296H1572.08ZM1578.77 265.507H1598.67C1601.89 265.507 1604.44 265.206 1606.31 264.604C1608.18 264.001 1609.55 262.878 1610.43 261.234C1611.33 259.574 1611.78 257.23 1611.78 254.203C1611.78 250.753 1611.56 248.124 1611.12 246.317C1610.68 244.511 1609.69 243.144 1608.16 242.216C1606.63 241.272 1604.24 240.8 1600.99 240.8H1578.77V265.507Z" fill="black"/>
</svg>
